<svg width="151" height="99" viewBox="0 0 151 99" fill="none" xmlns="http://www.w3.org/2000/svg">
<path d="M5.71905 7.12441C-4.46753e-07 12.8386 0 22.0417 0 40.4432V59.9621C0 78.3636 0.00487943 87.5619 5.71905 93.281C11.4332 99 20.6364 99 39.0379 99H48.7973C54.1228 99 58.6774 98.9996 62.6 98.8605C53.0339 91.6798 48.2508 87.738 48.2508 78.0757L72.6494 53.677L77.6268 48.6997C83.1849 43.1434 86.5767 35.7852 87.1913 27.9502C87.4193 26.0517 87.5116 24.2128 87.4705 22.4487C87.2363 19.3752 86.8517 16.7579 86.22 14.5001C85.1814 11.2246 83.5069 8.43584 81.22 6.29846C75.4458 1.40536 66.2665 1.40536 48.7973 1.40536H39.0379C20.6364 1.40536 11.4381 1.41024 5.71905 7.12441Z" fill="#15A0B9"/>
<path d="M87.8352 59.9621C87.8352 78.3636 87.8352 87.5668 82.1161 93.281C78.0522 97.3414 72.2314 98.519 62.6 98.8605H136.554C146.314 91.5409 150.725 87.8352 150.725 78.0757L140.966 68.3162H135.374C124.609 68.3162 113.995 65.8081 104.368 60.9967C99.1059 58.3671 93.5496 56.4255 87.8352 55.2053V59.9621Z" fill="#1A764B"/>
<path d="M104.368 60.9967C113.995 65.8081 124.609 68.3162 135.374 68.3162H140.966L121.354 48.7046C115.794 43.1486 112.4 35.7898 111.785 27.9536C111.169 20.1174 113.372 12.319 117.997 5.96303L121.447 1.21993V0H77.5292V1.21993L80.9791 5.96303C81.0602 6.0744 81.1405 6.18622 81.22 6.29846C81.5282 6.5596 81.8266 6.83466 82.1161 7.12441C84.083 9.09294 85.3734 11.4737 86.22 14.5001C86.9837 16.9083 87.4036 19.5797 87.4705 22.4487C87.8344 27.2241 87.8352 33.1011 87.8352 40.4432V55.2053C93.5496 56.4255 99.1059 58.3671 104.368 60.9967Z" fill="#BEE8E1"/>
<path d="M82.1161 93.281C87.8352 87.5668 87.8352 78.3636 87.8352 59.9621V55.2053C83.0937 54.1928 78.2434 53.677 73.3619 53.677H72.6494L48.2508 78.0757C48.2508 87.738 53.0339 91.6798 62.6 98.8605C72.2314 98.519 78.0522 97.3414 82.1161 93.281Z" fill="#178A81"/>
<path d="M72.6494 53.677H73.3619C78.2434 53.677 83.0937 54.1928 87.8352 55.2053V40.4432C87.8352 33.1011 87.8344 27.2241 87.4705 22.4487C87.5116 24.2128 87.4193 26.0517 87.1913 27.9502C86.5767 35.7852 83.1849 43.1434 77.6268 48.6997L72.6494 53.677Z" fill="#6AC4CD"/>
</svg>
