<svg width="100" height="100" viewBox="0 0 100 100" fill="none" xmlns="http://www.w3.org/2000/svg">
<path d="M40.5896 1.43839C27.819 4.08915 17.123 10.6487 9.60817 20.4879L6.88808 24.0372L8.77831 25.6996C9.79259 26.5981 10.6224 27.6315 10.6224 27.901C10.6224 28.9793 12.0977 31.5402 12.6971 31.5402C13.0659 31.5402 13.5731 32.304 13.8497 33.2026C14.1724 34.146 14.5873 35.0895 14.8178 35.3591C15.4633 36.033 15.2789 36.4823 14.2185 36.8867C13.2503 37.2461 13.0659 37.0664 12.2361 34.5055C11.6367 32.7083 11.0374 31.7199 10.4841 31.6301C9.14714 31.3605 9.10104 32.7083 10.2997 35.2692L11.4523 37.7403L10.3919 38.1896C9.37766 38.6389 9.33155 38.549 9.00883 36.7069C8.87052 35.6287 8.36338 34.2808 7.90235 33.6968C7.1647 32.8431 6.93418 32.7982 6.28874 33.2924C5.22836 34.146 5.36667 34.82 7.1186 37.0664C8.64 38.9983 8.64 39.0881 7.81015 39.807C6.65756 40.7505 6.61146 40.7505 6.28874 39.3577C5.7355 37.3809 4.58292 35.9881 3.52254 36.1229C1.77062 36.3475 2.09334 38.0099 4.16799 39.7621L6.05822 41.3345L5.04395 42.952L4.07578 44.5694L3.06151 42.6824C2.41606 41.3795 1.72451 40.7055 1.07907 40.6157C-0.626754 40.3911 -0.257928 42.1882 1.81672 44.0752C3.56864 45.6476 3.61475 45.7824 3.47644 48.3883L3.29202 51.0839L3.79916 48.9274C4.07578 47.7593 4.49071 46.8158 4.72123 46.8158C4.90564 46.8158 5.09005 47.0404 5.09005 47.2651C5.09005 47.894 7.2108 49.9607 7.85625 49.9607C8.91662 49.9607 8.22507 48.0288 6.61146 46.5911C4.99785 45.1534 4.95174 45.0636 5.55108 43.7157C6.15043 42.323 6.93418 41.8288 6.93418 42.907C6.93418 43.7607 9.70038 46.8607 10.2075 46.5911C11.0835 46.052 10.5763 44.5244 8.96273 42.952C7.39522 41.3345 7.34911 41.2447 8.17897 40.436C9.00883 39.6273 9.05493 39.6722 10.2997 42.323C11.2218 44.2549 11.8211 45.0186 12.4666 45.0186C13.988 45.0186 13.6192 42.9969 11.7289 40.9751C9.88479 38.9983 9.88479 38.9983 11.4062 38.549C12.2822 38.2794 12.4666 38.4591 12.9276 40.1215C13.4808 42.0983 15.4172 44.3447 16.1548 43.8954C16.8925 43.4462 16.2009 41.3795 14.7256 39.5374L13.3425 37.8751L14.6334 37.5606C15.5555 37.3359 16.0165 37.4258 16.3392 38.0548C17.4918 39.8968 19.0593 41.4244 19.8892 41.4244C21.3645 41.4244 20.9035 39.8519 18.921 38.0997L17.0769 36.4823L18.2756 36.033C19.1515 35.6736 20.1197 35.7635 21.9177 36.3026C24.269 37.0664 25.8365 36.9316 25.8365 36.078C25.8365 35.449 22.7015 34.5504 21.595 34.82C20.9035 34.9997 21.1801 34.5055 22.7476 32.9779C25.0989 30.6417 26.6203 27.7663 25.7904 27.2271C25.0989 26.8228 23.808 28.53 23.0242 30.7764C22.7015 31.7199 21.9177 32.933 21.2723 33.4272L20.0736 34.3258L19.9353 31.675C19.7509 28.575 19.1515 27.7213 18.46 29.5634C17.9529 30.8214 18.0451 32.7533 18.6905 34.2808C18.8749 34.7301 18.5522 35.1345 17.7685 35.4939C16.4315 36.078 16.4315 36.033 15.9243 33.2475C15.786 32.3489 15.8782 31.4953 16.1087 31.3605C16.3392 31.1808 17.123 29.9228 17.8607 28.575C19.5204 25.3401 21.595 23.9024 24.5456 23.9024C26.3898 23.9024 27.0352 24.1271 28.4644 25.43C30.8157 27.4518 31.9222 27.946 34.089 27.946C35.3799 27.946 36.302 27.5865 37.3623 26.7778C38.1461 26.1039 38.8376 25.6546 38.9299 25.7445C39.0221 25.8343 38.8838 27.0025 38.6071 28.3054C38.1 30.5518 37.9617 30.7764 35.887 31.8098C33.7202 32.8881 32.7059 34.4156 33.4436 35.5388C33.9968 36.4374 34.965 36.033 36.5325 34.2808L38.0539 32.5286L37.9156 36.3026C37.7773 40.3461 38.2383 41.8737 39.6214 41.8737C41.0045 41.8737 41.0967 40.7505 39.898 37.4258C38.3305 33.1576 38.3766 32.4388 40.0824 34.191C40.9123 35.0446 41.8805 35.5837 42.572 35.5837C45.1538 35.5837 44.4622 33.562 41.2811 31.7199C39.3909 30.6417 39.2065 30.417 39.2065 28.7996C39.2065 27.8561 39.3448 27.0474 39.5753 27.0474C39.7597 27.0474 40.3591 27.8112 40.9123 28.7996C41.9266 30.5518 44.4161 32.0794 45.5226 31.675C47.459 30.9562 45.1077 27.7213 41.6961 26.5083C40.313 26.0141 40.1285 25.7894 40.3591 24.8459C40.774 23.1836 43.7246 19.9937 45.2921 19.4546C46.0759 19.185 47.2745 18.9603 47.92 19.0053C49.1187 19.0053 49.1187 19.0053 48.1044 19.4096C45.7531 20.3082 48.0583 21.656 50.4096 20.8024C52.4381 20.0386 51.8849 21.072 49.4875 22.5546C44.785 25.3401 44.1395 26.1488 46.5369 26.1488C47.5512 26.1488 48.4271 25.5648 50.2252 23.6329C51.516 22.285 52.5764 20.8923 52.5764 20.6227C52.5764 20.3082 52.7147 20.3082 52.9914 20.5778C53.2219 20.8024 53.268 23.0488 53.1758 25.6097C52.853 31.0011 52.1615 32.4388 48.1044 35.4939C45.1538 37.7852 43.3558 41.1998 43.3558 44.5244C43.3558 47.5346 42.572 50.8593 41.5577 52.1622L40.7279 53.1956L40.4052 50.7245C40.0363 47.5795 39.2526 45.8274 38.3305 46.0071C37.0857 46.2766 37.4546 49.6013 38.9299 51.7579C40.1285 53.5101 40.1285 53.6898 39.3909 54.2289C38.6993 54.7231 38.3766 54.6782 37.3162 53.9144C36.5325 53.3303 35.7487 53.1057 35.1033 53.3303C33.7663 53.7347 33.9046 54.2289 35.5182 55.442C36.8552 56.3855 36.9013 56.4304 36.0253 57.3289C33.7202 59.8 33.4436 60.7435 33.213 66.6291L32.9364 72.3349L31.0001 75.1654C29.9397 76.693 29.0638 78.2205 29.0638 78.5799C29.0638 78.8944 29.617 80.422 30.2624 81.9945C31.0923 83.8815 31.4611 85.7235 31.5072 87.7453C31.5994 90.3511 31.415 90.9801 30.1241 93.0019L28.6488 95.2932L32.1988 96.641C38.1922 98.8874 42.7564 99.6063 50.5018 99.5614C58.2471 99.5614 61.9354 98.9324 68.3898 96.5961L72.4469 95.1135L72.1703 93.4511C71.8015 91.5192 71.7554 91.5642 73.7378 92.2381C74.8443 92.5975 75.3514 92.5975 75.8586 92.1932C76.8728 91.3844 76.2274 90.8453 74.1989 90.8453C71.8937 90.8453 71.7554 89.767 74.0144 88.8685C75.9969 88.0598 76.2735 86.667 74.3833 86.8916C73.2307 87.0264 73.1385 86.9366 73.0463 84.9148C72.9541 83.522 72.3547 81.7249 71.2943 79.793C70.3723 78.1756 69.7729 76.648 69.9113 76.4234C70.2801 75.7944 71.4788 75.9292 71.4788 76.6031C71.4788 77.5017 74.6599 80.9611 75.4897 80.9611C76.6884 80.9611 75.7664 78.6698 73.9683 77.0075C72.4008 75.5698 72.4008 75.4799 73.1846 74.8509C74.2911 74.0422 74.3372 74.0422 75.3514 75.5248C77.5183 78.6249 81.2527 80.2423 80.4228 77.7263C79.9618 76.1987 79.4546 75.7045 77.1495 74.6263L75.0287 73.6378L76.0891 72.7842C77.1034 71.9755 77.1495 71.9755 78.6709 73.2784C80.4228 74.806 83.4195 75.7944 84.1111 75.1205C84.8948 74.3567 82.5897 72.5146 80.1923 71.9755C78.9475 71.661 77.9332 71.3465 77.9332 71.2117C77.9332 70.5827 79.4085 69.6842 80.1001 69.9088C80.5611 70.0436 82.1286 70.2682 83.6039 70.403C85.8169 70.6277 86.2779 70.5378 86.5545 69.9537C86.9695 68.7856 85.8169 68.3363 82.9124 68.516L80.3306 68.6508L81.391 67.303C83.3273 64.7421 84.7104 60.2942 83.5117 60.2942C82.8202 60.2942 82.1747 61.3275 81.2066 64.2479C79.9157 68.2015 79.7312 68.2914 78.9014 65.8653C78.4404 64.5174 77.841 63.6189 77.3339 63.529C75.9969 63.2595 75.9047 64.6972 77.1956 67.1682C78.1637 69.1001 78.2559 69.5943 77.7488 70.0885C77.2417 70.5827 77.0573 70.4929 76.8267 69.4146C76.4118 67.8871 75.3053 66.1349 74.706 66.1349C73.9222 66.1349 74.1989 67.6624 75.3514 69.5045C76.4118 71.2117 76.4579 71.3465 75.7203 72.1103C74.9826 72.919 74.9365 72.8741 74.4755 71.032C73.9222 68.8755 72.8619 68.1117 72.8619 69.9088C72.8619 70.4929 73.0924 71.5712 73.369 72.29C73.7378 73.3234 73.6917 73.6378 73.0463 74.0871C71.8476 74.9408 71.6171 74.806 71.8476 73.3234C71.9859 72.5146 71.8476 71.9755 71.5249 71.9755C71.2482 71.9755 71.0177 72.2451 70.9716 72.5146C70.9255 72.8291 70.8794 73.5929 70.8794 74.177C70.7411 75.6147 69.6346 75.9741 69.6346 74.5813C69.6346 72.5146 71.0177 68.9653 72.908 66.0899C75.2592 62.5855 75.8125 60.7884 75.3975 58.0927C75.1209 56.2507 74.6599 55.6217 71.0638 52.2071L67.0067 48.3883L66.4074 45.0186C65.6236 40.3461 64.6094 38.5939 62.0276 37.4258C60.3679 36.662 59.9529 36.2577 59.9529 35.3142C59.9529 34.6852 59.7224 33.7866 59.4919 33.2924C58.8465 32.1692 59.2614 32.2141 61.0133 33.4272C61.9354 34.1011 63.1341 34.4156 64.5172 34.4156C66.3613 34.4605 66.6379 34.3258 66.6379 33.562C66.6379 32.7982 66.223 32.6185 63.5029 32.3939C59.4919 32.0794 58.7543 31.4054 61.5205 30.6417C63.8256 30.0127 65.2548 28.7547 64.886 27.7213C64.3789 26.4633 62.212 27.0923 59.8607 29.159C58.6621 30.2822 58.6621 30.2822 58.1549 29.3837C57.4634 28.0808 57.4173 28.1706 59.7224 27.317C61.751 26.5532 63.3646 25.0256 62.9036 24.2619C62.3964 23.4981 60.875 23.9474 58.8926 25.43C57.74 26.2836 56.6796 26.8677 56.5413 26.7329C55.8959 26.1039 56.3569 25.2054 57.4634 24.801C59.2614 24.1271 61.336 22.5546 61.336 21.8807C61.336 20.2633 57.9705 21.072 56.5413 23.0937C55.7114 24.2169 55.5731 24.1271 55.2043 22.5097C54.8355 21.027 55.3887 20.5328 58.1549 19.8589C62.9036 18.6908 67.0067 21.4314 68.6665 26.9126C69.7268 30.417 70.7872 31.5402 72.908 31.5402C73.83 31.5402 74.5677 31.046 75.6742 29.6083C77.7027 27.0474 78.3482 26.5981 79.8696 26.5981C81.5754 26.5981 83.4656 28.3953 83.4656 30.0127C83.4656 31.3605 81.2988 34.191 80.9299 33.2475C80.8377 32.933 80.5611 31.9446 80.2845 31.0909L79.8696 29.5185V31.0909C79.8235 31.9446 80.0079 33.0678 80.1923 33.562C80.4689 34.2808 80.1923 34.6852 78.5787 35.6736C76.5501 36.8867 75.5359 38.8186 76.4118 39.6722C77.1495 40.3911 78.4404 39.5823 79.7774 37.5157L81.0682 35.5388L82.0825 36.9316L83.0968 38.2794L81.7137 39.8519C80.1001 41.6041 79.5007 43.1317 80.1462 43.7607C80.8838 44.4795 82.4052 43.4012 83.2812 41.4244C84.2033 39.4026 84.2494 39.3577 85.6786 40.3461L86.6928 41.02L85.3097 42.1432C84.5721 42.7722 83.9266 43.5809 83.9266 43.9404C83.9266 44.2998 83.7422 44.5694 83.4656 44.5694C83.2351 44.5694 83.0046 45.1534 83.0046 45.9172C83.0046 47.31 83.2812 47.4897 84.6182 46.9955C85.2175 46.7708 86.785 44.4795 86.9234 43.6708C86.9234 43.536 87.1539 43.0867 87.4305 42.6375C87.8915 41.8737 87.9376 41.8737 88.998 42.6824L90.1045 43.536L88.6753 45.2882C86.6467 47.8491 86.0474 49.0622 86.6467 49.6462C87.4305 50.41 89.2746 48.8825 90.1967 46.6361C91.1649 44.3897 91.3493 44.2549 92.1791 45.1984C92.5941 45.6926 92.4096 46.2766 91.3032 47.9839C89.874 50.1854 89.5512 51.9376 90.4272 52.4318C91.2571 52.9709 92.6863 51.2637 92.9629 49.4216C93.1473 48.4781 93.4239 47.5795 93.6083 47.4897C94.346 47.0404 95.4525 49.5564 95.4986 51.8477C95.5447 55.442 96.0057 56.4753 97.2966 56.4753C98.3109 56.4753 98.4492 56.2507 98.5875 54.5883C98.7719 52.3869 97.8959 50.4999 95.5447 47.9839L93.9311 46.1868L96.8356 45.2882C99.8323 44.3447 100.754 43.4462 99.3712 42.907C98.357 42.5476 95.5447 43.4911 94.2538 44.6143C93.3317 45.4679 93.2856 45.4679 92.4096 44.5244C91.6259 43.6708 91.6259 43.5809 92.3174 43.1766C94.2538 42.1432 97.0661 39.7171 97.2044 39.0432C97.6654 36.7968 93.6544 38.5939 91.9025 41.4244C90.9804 42.9969 90.6577 43.0418 89.1363 41.9186L88.0298 41.02L89.7818 39.8968C92.3174 38.2794 92.9168 37.7403 93.5161 36.6171C94.3921 35.0446 94.2077 34.2359 92.9168 34.2359C91.5337 34.2359 90.1967 35.5837 88.7214 38.3693C88.122 39.5823 87.4305 40.5258 87.2461 40.5258C86.8312 40.4809 84.8487 38.9084 84.8487 38.549C84.8487 38.4142 85.6325 37.92 86.6467 37.4258C88.3987 36.5272 89.2285 35.449 88.7214 34.6403C88.5831 34.4156 88.2604 34.3258 88.0298 34.4605C87.7993 34.6403 87.6149 34.5055 87.6149 34.2808C87.6149 34.0113 87.8915 33.7866 88.2143 33.7866C88.5831 33.7866 89.3207 33.2924 89.9201 32.6634C90.796 31.7199 90.9343 31.2706 90.6577 29.6532C89.6896 23.8575 89.6896 24.0372 91.2571 22.6445L92.6863 21.3865L91.3954 19.5893C89.6435 17.3429 83.4195 11.5023 80.4689 9.43559C75.2131 5.75149 67.2373 2.51666 60.2757 1.21375C55.2043 0.27026 45.6148 0.360116 40.5896 1.43839ZM54.8355 23.8126C55.1582 24.8459 55.1121 25.3401 54.605 25.7445C54.0517 26.1938 53.9595 25.9242 53.9595 24.1271C53.9595 21.7459 54.2361 21.656 54.8355 23.8126ZM55.2043 29.3387C54.3744 30.6866 54.0056 30.9562 53.8212 30.4619C53.4985 29.6532 53.7751 28.6648 54.7894 27.1373C55.3887 26.2387 55.5731 26.1938 55.8959 26.7778C56.1725 27.272 55.9881 28.0808 55.2043 29.3387ZM57.74 29.8329C57.8322 30.1474 57.8322 31.4953 57.74 32.7982L57.5556 35.2243L56.4952 34.2359C55.4809 33.3373 55.4809 33.2475 56.2186 31.3156C56.9562 29.2489 57.4173 28.8445 57.74 29.8329ZM55.7575 34.3707C56.3569 35.0446 58.2471 36.3026 59.9529 37.1562C62.7652 38.549 65.0243 40.4809 65.0243 41.4693C65.0243 41.694 64.1483 41.8737 63.1341 41.8737C60.1835 41.8737 57.6478 42.8172 55.7575 44.5694C53.268 46.8607 53.0375 49.152 54.5128 55.3521C54.605 55.8463 54.2822 55.9811 53.4063 55.9362C52.6686 55.8912 52.1154 56.071 52.1154 56.2956C52.1154 56.5652 52.8069 56.7 53.6368 56.6101C54.9738 56.4753 55.1121 56.3405 54.9738 55.1275C54.3283 48.3433 54.3744 47.4897 55.2965 46.0969C56.4491 44.2549 59.5841 42.8172 62.7191 42.6824L65.2548 42.5476L65.762 45.0186C66.0386 46.3665 66.4074 47.939 66.5918 48.523C66.9145 49.4216 66.684 49.6462 64.886 50.41C63.7334 50.9042 61.751 51.3984 60.4601 51.4434C59.1692 51.5332 57.9705 51.7579 57.7861 51.9825C57.0945 52.6564 63.4568 51.8926 65.4853 50.9941L67.5139 50.1405L68.5282 51.2637L69.5424 52.4318L68.3898 55.5768C66.9606 59.3507 65.4853 61.5522 62.1659 64.6073C59.2614 67.3479 55.9881 69.2798 54.2822 69.2798C52.6686 69.2798 48.1044 67.7523 44.0012 65.8653C40.6818 64.3377 38.2383 62.0464 36.9935 59.3058C36.4864 58.0927 36.6708 56.7 37.3623 56.7C37.5468 56.7 38.976 55.5318 40.5435 54.0492L43.3097 51.4434L45.7531 51.8028C47.0901 52.0274 48.3349 52.0274 48.5654 51.8028C48.796 51.5781 47.8739 51.3086 46.583 51.2187C45.2921 51.0839 44.0473 50.8144 43.8168 50.5897C43.448 50.2303 44.0473 42.8172 44.5084 42.4128C44.6006 42.323 45.6609 42.5476 46.8596 42.952C49.4414 43.8056 49.3492 43.8056 49.3492 43.2665C49.3492 43.0418 48.3349 42.5925 47.044 42.278C45.707 41.9635 44.7389 41.4693 44.7389 41.1099C44.7389 39.9418 46.9518 37.1562 49.0726 35.5837C50.2713 34.7301 51.7005 33.3373 52.2076 32.4837L53.2219 30.9562L53.9134 31.9895C54.3283 32.5736 55.1582 33.6518 55.7575 34.3707ZM86.3701 34.6852C85.9091 35.0446 85.0792 35.8982 84.526 36.6171L83.5578 37.8302L82.6358 36.3925L81.6676 34.9548L83.3273 33.9663C84.6643 33.2026 85.1714 33.1127 86.0474 33.5171C87.1078 33.9663 87.1078 34.0562 86.3701 34.6852ZM73.0463 54.9478C74.7521 56.8797 74.6138 57.9579 72.6313 58.3174C70.7411 58.6319 69.5885 59.7101 70.695 60.1145C71.1099 60.2493 71.8476 60.1594 72.3547 59.8449C73.5073 59.2609 73.5534 59.5304 72.5852 60.9681C72.1703 61.5971 71.5249 62.0913 71.1099 62.0913C70.0957 62.0913 67.7905 64.3377 67.7905 65.3261C67.7905 65.7754 68.0671 66.1349 68.4359 66.1349C69.2197 66.1349 71.9398 63.9783 71.9398 63.3493C71.9398 63.1247 72.3086 62.4058 72.8158 61.8218L73.6917 60.7435L73.8761 61.8667C74.0605 62.6754 73.5995 63.7986 72.3086 65.7305C70.0035 69.19 69.1275 71.5712 69.0814 74.6712C69.0353 76.7379 69.358 77.7263 70.7411 80.2423C72.1242 82.8032 72.4008 83.7916 72.4008 85.9931C72.4008 87.4757 72.2164 88.5989 71.9398 88.5989C69.9113 88.5989 64.3328 84.2858 62.0737 80.9611C61.0133 79.3886 61.1516 79.164 62.7652 79.9278C63.7795 80.422 64.3328 80.4669 64.6555 80.1524C65.4392 79.3886 64.2867 78.3553 62.4425 77.9959C60.7828 77.6814 60.5062 77.322 61.4744 76.5582C61.8432 76.2437 62.7191 76.2437 64.2867 76.5582C66.0847 76.9176 66.6379 76.8727 67.1912 76.3335C67.8366 75.7495 67.7905 75.6147 66.8684 75.1205C66.3152 74.806 65.347 74.6712 64.7477 74.806C63.3185 75.0306 63.3646 74.4915 64.7477 73.0987C66.5918 71.3016 67.3295 70.0436 67.3295 68.7407C67.3295 67.932 67.099 67.4827 66.6379 67.4827C65.762 67.4827 64.1022 70.0436 64.1022 71.4364C64.1022 72.6494 63.3185 74.2219 62.7652 74.2219C62.5347 74.2219 62.3503 73.9523 62.3964 73.6378C62.4425 71.9755 62.1659 71.1219 61.5205 70.8972C60.8289 70.6277 60.7828 70.8972 61.0133 73.2784C61.2438 75.2553 61.1516 76.064 60.6906 76.4234C59.8607 77.0973 59.5841 75.8843 59.3997 71.2567L59.2614 68.1117L62.3503 65.2812C66.1308 61.8667 67.8827 59.3058 69.1736 55.5318C70.2801 52.297 70.7411 52.2521 73.0463 54.9478ZM39.9441 64.3377C40.9123 65.1914 42.6642 66.3146 43.7707 66.8088L45.7992 67.6624L45.5226 70.6277C44.6006 80.3321 41.9266 84.9597 36.3481 86.2626C33.0747 87.0713 32.291 86.9815 32.291 85.7684C32.291 85.2293 31.8761 83.8815 31.3689 82.8032C30.2163 80.3321 30.2163 80.2423 31.6455 81.3655C32.8903 82.309 33.6741 82.264 33.6741 81.1858C33.6741 80.4669 31.83 79.1191 31.2767 79.4336C31.0923 79.5684 30.9079 79.5684 30.9079 79.3886C30.9079 79.2539 31.4611 78.9394 32.1066 78.7147C32.9825 78.3553 33.9507 78.4452 35.7487 78.9843C38.2383 79.7481 39.898 79.6133 39.5753 78.6249C39.437 78.3104 38.6532 77.8611 37.7773 77.6364C36.9013 77.4118 36.1637 77.1872 36.0715 77.1422C36.0253 77.0973 36.9935 76.064 38.2844 74.806C40.8662 72.29 41.3272 70.6277 39.4831 70.6277C38.6993 70.6277 38.1922 71.032 37.639 72.1552C37.224 73.0089 36.9013 73.9973 36.9013 74.4016C36.9013 75.1205 35.1955 76.9176 34.5039 76.9176C34.2734 76.9176 34.3195 76.5132 34.5961 76.064C35.1955 74.9408 35.1955 72.8741 34.5961 72.8741C33.9507 72.8741 33.213 74.8509 33.213 76.4683C33.213 77.5466 32.9825 77.8162 31.7838 78.0408C31.0001 78.2205 30.2624 78.2654 30.1702 78.1307C30.0319 77.9959 30.6313 76.8727 31.5533 75.5698C33.4897 72.8291 34.1351 70.8523 34.1351 67.5726V65.1914L35.8409 66.3595C37.7773 67.6175 39.2065 67.8421 39.2065 66.8088C39.2065 66.045 37.8234 65.2363 36.5325 65.2363C36.0715 65.2363 35.2877 64.8319 34.8267 64.3377C33.9968 63.4392 34.0429 63.4392 35.4721 63.4392C37.3162 63.4392 37.224 62.4058 35.3799 62.1812C33.9046 62.0015 33.9046 62.0015 34.8728 60.2043L35.6104 58.8116L36.9013 60.7884C37.5929 61.8667 38.976 63.4841 39.9441 64.3377Z" fill="#1A764B"/>
<path d="M62.5807 56.6101C61.5664 57.6884 61.797 59.3956 63.0417 59.9797C64.8859 60.7884 66.1307 58.8116 65.2086 56.5202C64.8398 55.5767 63.5028 55.6217 62.5807 56.6101Z" fill="#1A764B"/>
<path d="M41.5575 56.8797C40.7737 57.7782 41.2347 59.6652 42.3873 60.2493C44.3698 61.2826 46.5366 59.0362 45.3379 57.1942C44.6925 56.2057 42.2951 56.026 41.5575 56.8797Z" fill="#1A764B"/>
<path d="M51.1014 61.058C50.502 61.3725 49.5799 61.5971 49.0267 61.642C47.4131 61.642 47.7819 62.2261 50.2715 63.3942C52.715 64.5624 54.6974 64.4725 57.3714 63.1247L58.7084 62.4508L56.6798 61.5522C54.1903 60.4739 52.4845 60.2942 51.1014 61.058ZM56.2649 62.5406C56.6337 62.5855 56.2188 62.8551 55.3429 63.1696C54.4669 63.4841 53.5448 63.7087 53.2682 63.6189C53.0377 63.574 52.2539 63.3942 51.5624 63.2595C48.4735 62.5855 51.3319 62.1812 56.2649 62.5406Z" fill="#1A764B"/>
<path d="M27.9113 34.7301C27.4042 35.449 27.5425 37.8751 28.1418 40.0316C28.4184 41.1099 28.5567 42.5027 28.3723 43.1766C28.0957 44.2099 28.0035 44.1201 27.0814 41.8737C25.9289 39.1331 24.223 37.8302 23.1627 38.9084C22.1484 39.8519 22.9782 41.7389 25.2834 43.6708C26.9892 45.1534 27.2659 45.6027 26.7587 46.052C26.2977 46.4564 26.1133 46.4564 25.9289 45.9172C25.3756 44.4795 23.1166 42.7722 21.7335 42.7722C18.7829 42.7722 20.5809 45.8723 24.1308 46.9056C25.8367 47.3998 25.8828 47.4448 25.0068 48.2535C24.1308 49.1071 24.0847 49.1071 22.7016 47.7593C21.088 46.1419 18.9212 45.8274 18.9212 47.2201C18.9212 48.2984 19.9354 49.1071 21.8257 49.4665C23.301 49.781 23.301 49.781 22.2406 50.3651C21.3185 50.8593 20.9958 50.7694 19.5666 49.5564C17.9069 48.1187 16.155 47.7143 16.155 48.7477C16.155 49.5564 17.492 50.6796 18.9212 51.0839L20.0737 51.4434L18.9673 51.8477C18.0452 52.1622 17.6764 51.9825 16.616 50.8144C15.6939 49.6912 15.1868 49.4216 14.4952 49.6912C13.6654 50.0057 13.7115 50.0955 14.9102 51.0839C16.3855 52.3869 16.4777 52.6564 15.2329 52.6564C14.6336 52.6564 14.0342 52.0724 13.5271 50.9492C12.9738 49.8709 12.3284 49.2419 11.6368 49.152C10.2076 48.9274 10.2537 50.6347 11.7752 51.5782C13.0199 52.3869 13.2966 53.1057 12.3745 53.1057C12.0518 53.1057 11.3602 53.4651 10.8531 53.8246C9.97713 54.5434 9.97713 54.5434 11.0836 54.2289C11.729 54.0492 12.5128 53.7796 12.8355 53.6898C13.2044 53.555 13.3888 53.8695 13.3888 54.6782C13.3888 56.2057 14.1725 57.5985 15.0485 57.5985C16.1089 57.5985 16.2933 56.4753 15.5095 54.9478C14.5413 53.1506 14.5413 53.1057 16.1089 53.1057C17.2614 53.1057 17.4459 53.2854 17.6764 54.813C18.0452 56.9695 19.0134 58.2724 20.0276 57.913C20.4426 57.7333 20.7653 57.284 20.7653 56.9246C20.7653 56.5202 20.5809 56.3405 20.3043 56.4753C20.0737 56.6101 19.9815 56.4753 20.1198 56.1159C20.2582 55.7565 19.8432 54.8579 19.1978 54.0941L17.9991 52.7463L19.1978 52.4767C19.8893 52.297 20.4887 52.2071 20.5348 52.297C20.5809 52.3869 20.9958 53.1057 21.4107 53.8695C22.1945 55.397 24.1769 56.2507 25.0068 55.442C25.56 54.9028 25.0529 53.8695 24.4074 54.2738C24.1769 54.4086 24.0386 54.3188 24.0847 54.0492C24.1769 53.7796 23.6237 53.1057 22.9321 52.5216L21.5952 51.4883L22.7938 50.9042C23.8542 50.3202 24.0847 50.3651 25.6061 51.7129C27.4042 53.2405 29.7093 53.5999 30.1704 52.4318C30.6314 51.2187 27.2659 49.6462 24.9146 49.9607C24.4074 50.0057 24.5458 49.7361 25.2373 49.0173C26.2516 47.9839 26.2977 47.9839 28.4645 48.7477C29.7093 49.152 31.369 49.5115 32.1989 49.5115C34.1813 49.5115 34.6885 48.3433 33.1671 47.1303C32.245 46.4114 31.6457 46.3216 29.6171 46.5462C26.3438 46.9056 26.897 46.2317 30.8158 45.0636C34.1813 44.0752 36.4404 42.6824 36.4404 41.6041C36.4404 39.8968 33.2132 40.7056 30.3087 43.2215L28.6028 44.6592L29.2944 42.8172C29.6171 41.8288 30.0782 39.807 30.2626 38.3693C30.4931 36.2577 30.4009 35.5837 29.7554 34.9997C28.8795 34.1011 28.3262 34.0562 27.9113 34.7301Z" fill="#1A764B"/>
<path d="M66.4072 36.5722C66.4072 37.92 67.5598 39.5823 70.0955 41.8287L72.1701 43.6259L69.865 43.536C67.8364 43.4462 67.5598 43.536 67.5598 44.3447C67.5598 45.1534 67.8825 45.2433 70.6487 45.2433C73.0922 45.2433 73.9221 45.423 74.5675 46.0969C75.3513 46.9056 75.3513 46.9505 74.5214 46.636C73.3688 46.2317 70.0955 47.1752 70.0955 47.894C70.0955 49.0622 72.4468 49.1071 75.213 47.9839C75.7201 47.7592 76.1811 48.0288 76.7344 48.7926C77.1493 49.4216 77.472 50.0057 77.472 50.0506C77.472 50.1404 76.5038 50.1854 75.3052 50.1854C73.4149 50.1854 73.0922 50.3202 73.0922 51.0839C73.0922 51.7579 73.4149 51.9825 74.4753 52.0274C75.2591 52.0274 76.3655 51.8926 76.9649 51.668C77.7947 51.3984 78.2097 51.4883 78.6707 52.0723C79.5006 53.1955 79.4545 53.555 78.4402 53.555C77.9791 53.555 77.1032 53.9144 76.5499 54.3637C75.6279 55.0825 75.6279 55.2173 76.2733 55.7565C76.8727 56.2507 77.2876 56.2057 78.8551 55.442C80.6531 54.5883 80.7914 54.5883 81.7135 55.3521L82.6817 56.1159L81.483 56.4304C80.0999 56.7449 79.2239 58.0478 79.7311 58.9014C80.2843 59.7551 81.7596 59.1261 82.6817 57.6434C83.2349 56.7449 83.7421 56.3854 84.3414 56.5652C85.0329 56.7449 85.1713 57.1043 84.9407 58.8116C84.7563 60.6087 84.8024 60.8333 85.5862 60.6536C86.2316 60.5638 86.5083 60.0695 86.6005 58.8565C86.7388 57.2391 86.7849 57.2391 88.4446 57.4637C89.7355 57.5985 89.966 57.5536 89.4589 57.1942C89.09 56.9246 88.3985 56.6999 87.9836 56.6999C86.9232 56.6999 86.9232 56.4304 88.1219 54.8579C89.09 53.51 89.1361 52.1622 88.2141 51.8926C87.5686 51.668 86.2316 54.0043 86.2316 55.3521C86.2316 56.2956 85.8628 56.4304 84.6641 55.9811C84.0187 55.7565 84.157 55.442 85.3096 54.184C86.7849 52.5216 87.0154 51.5781 86.1394 51.039C85.494 50.6346 83.4654 52.8361 83.4654 54.0043C83.4654 55.2173 82.7739 55.442 81.8979 54.5434C81.2064 53.7796 81.2525 53.6448 82.5434 52.7463C83.4193 52.0723 83.9265 51.3535 83.9265 50.6346C83.9265 48.8375 82.7739 49.2868 81.2525 51.7129L80.3304 53.1955L79.5467 52.0274C78.7629 50.9042 78.7629 50.8593 80.146 49.6013C81.5291 48.3433 82.4973 46.1418 81.944 45.6027C81.2986 45.0186 80.146 46.052 79.27 47.9839L78.3019 50.0506L77.3798 48.6129C76.5038 47.1752 76.5038 47.1303 77.4259 46.1868C78.6707 44.8839 79.4545 42.7273 78.9012 42.1882C78.1636 41.4693 77.1032 42.6374 76.5038 44.7041C76.0428 46.5013 75.9967 46.5013 75.1207 45.6027C74.2909 44.8389 74.2909 44.5244 74.7519 42.4577C75.3052 40.1664 75.1207 38.7287 74.2909 38.7287C73.6454 38.7287 73.1383 40.4809 73.2766 42.278C73.3688 43.8056 73.3688 43.8505 72.4468 43.0418C71.9396 42.5925 71.3864 41.694 71.2481 41.02C70.787 38.9983 68.3436 35.5837 67.3293 35.5837C66.6838 35.5837 66.4072 35.8982 66.4072 36.5722Z" fill="#1A764B"/>
<path d="M3.10743 54.0492C1.35551 55.442 -0.35031 58.0478 0.433445 58.0478C1.30941 58.0478 6.93401 53.9144 6.93401 53.2854C6.93401 52.2071 4.90546 52.6115 3.10743 54.0492Z" fill="#1A764B"/>
<path d="M26.4821 56.3405C25.1912 57.913 21.6874 64.5624 21.6874 65.5508C21.6874 65.8653 21.503 66.1349 21.2263 66.1349C20.9958 66.1349 20.7653 65.8204 20.7653 65.416C20.7653 64.3377 18.5523 60.0696 17.5381 59.171C16.6621 58.4072 16.5238 58.4072 15.8784 59.0362C15.2329 59.6652 15.2329 59.8898 15.8784 61.3725C16.2472 62.271 17.6303 64.0232 18.9212 65.2363C20.9036 67.2131 21.1802 67.7073 20.9036 68.6958L20.627 69.9088L19.4283 68.516C17.7686 66.6291 15.3712 65.4609 14.4953 66.1798C14.1264 66.4493 13.8498 66.9436 13.8498 67.2581C13.8498 68.1566 16.4777 70.0885 18.4601 70.6726C20.1199 71.1668 20.3043 71.3465 20.3043 72.7393V74.2219L18.5523 73.1436C15.4634 71.2567 12.605 71.2567 13.02 73.1436C13.2505 74.3118 15.3712 75.2103 17.9069 75.2103L20.0738 75.1654L20.166 77.4118C20.2121 78.6249 20.166 79.6133 20.0277 79.6133C19.9354 79.6133 19.0595 79.2089 18.1374 78.7147C15.2329 77.1872 11.9596 77.8162 12.6972 79.7031C13.1583 80.8713 15.2329 81.4553 17.7686 81.1858C20.166 80.8713 20.166 80.8713 20.4426 82.2191C20.5809 82.938 20.8575 84.0612 20.9958 84.6902L21.3185 85.8583L19.5666 84.9597C16.4316 83.4322 14.1264 84.1061 16.4316 85.8583C17.2615 86.4873 18.3218 86.8018 19.6127 86.8018H21.5491L22.84 89.7221C23.5315 91.3395 24.3153 92.7772 24.5458 92.912C24.7763 93.0468 24.638 92.4178 24.2231 91.4294C23.0244 88.7337 22.6094 87.6554 22.6094 87.296C22.6094 87.0713 24.0386 87.0264 25.8367 87.1612C28.5107 87.3409 29.11 87.2511 29.3405 86.6221C29.8938 85.2293 28.6029 84.4206 26.3438 84.7351C25.2373 84.8699 24.0386 85.2293 23.7159 85.4989C22.6555 86.3525 21.7796 85.6336 21.4569 83.6568C21.2724 82.6235 21.2263 81.7249 21.3185 81.5901C21.4569 81.5003 22.7477 81.635 24.1769 81.9046C26.4821 82.309 26.9431 82.264 27.7269 81.5901C28.9256 80.5118 28.8334 79.7031 27.4042 79.3437C26.3438 79.0741 25.1912 79.2089 22.0562 79.8829C20.7653 80.1524 20.7653 80.1524 20.7653 77.6814V75.2103L22.2406 75.8843C25.5139 77.5017 29.7554 76.9625 28.6029 75.1205C28.2801 74.6263 27.2198 74.4466 24.4536 74.4466C21.1802 74.4466 20.7653 74.3567 20.7653 73.6378C20.7653 73.1886 20.9958 72.4248 21.2263 71.9755C21.6413 71.2567 21.9179 71.1668 22.8861 71.5262C24.6841 72.2001 28.4184 72.0654 29.0639 71.3016C30.6775 69.4146 27.2198 68.6059 23.301 69.9537C22.3328 70.3132 21.4108 70.5378 21.3646 70.4479C21.2724 70.403 21.3646 69.6842 21.503 68.9204C21.7335 67.8421 22.0562 67.4827 22.7938 67.4827C24.638 67.4827 29.2944 66.0899 30.1243 65.3261C30.7697 64.6522 30.8158 64.3827 30.3548 63.7537C29.8015 63.0348 29.6171 63.0348 27.2198 63.8884C25.8367 64.3827 24.0847 65.2363 23.3471 65.7754C22.1945 66.5841 22.0562 66.5841 22.2867 65.9551C22.4711 65.5059 22.6094 64.9667 22.6094 64.7421C22.6094 64.4725 24.0386 62.9 25.8367 61.1928C28.8795 58.2724 29.986 56.4304 29.2944 55.397C28.7873 54.5434 27.773 54.8579 26.4821 56.3405Z" fill="#1A764B"/>
<path d="M6.9344 58.4971C6.65778 58.9913 6.24285 60.429 6.01234 61.7319C5.73572 63.0348 5.13638 64.4725 4.67534 64.9667C3.84548 65.7754 3.79938 65.7754 3.20004 64.203C2.87732 63.3044 2.46239 62.6754 2.27797 62.7653C2.09356 62.9 2.00135 62.7203 2.04746 62.4058C2.04746 62.1363 1.90915 61.8218 1.63253 61.7319C0.664358 61.4623 0.940978 63.7537 2.09356 65.416C2.87732 66.5841 3.20004 67.4378 2.96952 68.0668C2.73901 68.8306 2.83121 68.9204 3.24614 68.561C3.66107 68.1566 4.16821 68.4262 5.27469 69.6393C6.28896 70.7175 7.02661 71.1219 7.53375 70.9422C8.68633 70.5378 7.71816 68.7407 5.78182 67.6624L4.21431 66.8088L5.09027 65.6856L5.96623 64.5624L7.71816 66.2247C9.47008 67.932 11.5447 68.5161 11.5447 67.3479C11.5447 66.4943 10.2538 65.416 8.3175 64.6073L6.70389 63.9783L7.99478 63.4841C8.73243 63.2145 9.97722 62.9899 10.8532 62.9899C12.559 62.9899 14.6336 61.5971 14.1265 60.8333C13.5733 59.9797 11.4525 60.2493 9.37788 61.4174C8.2714 62.0015 7.39544 62.4058 7.39544 62.3609C7.39544 62.271 7.71816 61.4623 8.13309 60.5189C9.14736 58.0927 8.13309 56.3405 6.9344 58.4971Z" fill="#1A764B"/>
<path d="M94.9913 62.0015C94.9913 63.8435 94.7146 63.9334 92.4095 62.9449C90.0121 61.9116 86.9232 61.9565 86.9232 62.9899C86.9232 63.8435 89.5511 64.7421 92.1328 64.7421C94.2536 64.787 94.4841 65.1913 93.5621 67.2131L93.0549 68.2914L91.1186 67.4378C88.9056 66.4493 86.0472 66.2696 86.3238 67.1233C86.6005 67.887 88.3524 68.6957 90.7498 69.145L92.6861 69.5044L91.764 71.3465L90.842 73.1885L88.3985 72.3798C85.955 71.5711 84.9407 71.7958 85.4479 73.0538C85.5862 73.4132 86.6005 73.8625 87.8452 73.9973C89.8277 74.3118 89.9199 74.3567 89.3205 75.2552C88.7673 76.0639 88.3063 76.1538 85.2174 76.0639C81.7596 75.9741 80.2382 76.5132 81.6674 77.4118C82.4512 77.906 85.2174 77.8611 86.4621 77.4118C87.6608 76.9625 88.4446 77.7712 88.629 79.6582C88.7673 81.3205 89.7355 81.68 90.5653 80.422C90.9342 79.8379 90.842 79.2538 90.2426 78.0408C89.5511 76.648 89.5511 76.2886 90.1043 75.5248C90.7036 74.6712 90.7498 74.7161 91.303 76.019C91.9484 77.5016 93.1471 77.8611 93.1471 76.5132C93.1471 76.0639 92.7322 75.2103 92.2712 74.6262C91.3952 73.548 91.4413 73.503 92.4556 71.5262L93.5159 69.5494L93.7926 70.9421C94.2075 72.6494 95.2679 73.6828 95.9594 73.0088C96.6049 72.3798 96.1899 71.0769 94.9451 69.774C94.2075 69.0102 94.0231 68.4262 94.2536 67.2131C94.6685 65.2812 95.0835 65.2812 96.0516 67.258C96.7893 68.7856 98.1724 69.4146 98.2646 68.2465C98.4029 66.9435 98.0802 66.2696 96.7432 65.1464C95.4984 64.1131 95.3601 63.7536 95.5906 62.3609C95.7289 61.4623 95.6828 60.7435 95.4062 60.7435C95.1757 60.7435 94.9913 61.3275 94.9913 62.0015Z" fill="#1A764B"/>
<path d="M85.955 78.7597C85.494 79.2988 83.5576 80.7365 81.7596 81.9496C79.9155 83.1177 78.0714 84.6452 77.6564 85.2293C76.2733 87.3409 77.933 88.5091 80.146 86.9815C80.6992 86.6221 82.2206 84.8249 83.5115 83.0728L85.8628 79.8379L85.6323 81.7249C85.4018 83.7467 85.8167 84.8699 86.6466 84.3307C86.9693 84.151 87.1537 83.0278 87.1076 81.4553C87.0615 80.0176 87.1537 78.6249 87.3381 78.3553C87.8913 77.4567 86.8771 77.7712 85.955 78.7597Z" fill="#1A764B"/>
</svg>
